<!-- Generated by IcoMoon.io -->
<svg version="1.1" xmlns="http://www.w3.org/2000/svg" width="32" height="32" viewBox="0 0 32 32">
<title>comp</title>
<path fill="#2196f3" d="M14.926 14.965h1.066v4.798h-1.066v-4.798zM19.19 17.097h1.066v2.665h-1.066v-2.665zM10.661 18.696h1.066v1.066h-1.066v-1.066zM7.463 18.163h1.066v1.599h-1.066v-1.599z"></path>
<path fill="#212121" d="M1.599 28.291h25.586c0 0 0 0 0 0 0.883 0 1.599-0.716 1.599-1.599v0-2.132c0-0.883-0.716-1.599-1.599-1.599v0h-0.533v-13.294l3.028-2.868c0.207 0.104 0.452 0.166 0.711 0.166 0.888 0 1.608-0.72 1.608-1.608s-0.72-1.608-1.608-1.608c-0.888 0-1.608 0.72-1.608 1.608 0 0.247 0.056 0.481 0.155 0.69l-0.004-0.010-2.281 2.162v-1.23c0-0.883-0.716-1.599-1.599-1.599v0h-21.323c-0.883 0-1.599 0.716-1.599 1.599v0 15.992h-0.533c-0.883 0-1.599 0.716-1.599 1.599v0 2.132c0 0.883 0.716 1.599 1.599 1.599v0zM30.384 4.837c0.294 0 0.533 0.239 0.533 0.533s-0.239 0.533-0.533 0.533v0c-0.294 0-0.533-0.239-0.533-0.533s0.239-0.533 0.533-0.533v0zM3.198 6.969c0-0.294 0.239-0.533 0.533-0.533h21.323c0.294 0 0.533 0.239 0.533 0.533v2.239l-1.066 1.013v-2.185c0-0.295-0.239-0.534-0.534-0.534h-19.189c-0.294 0-0.534 0.239-0.534 0.533v13.327c0 0.294 0.239 0.533 0.534 0.533h19.189c0.295 0 0.534-0.239 0.534-0.533v-9.675l1.066-1.010v12.283h-22.389v-15.991zM7.996 13.899c-0.001 0-0.003 0-0.005 0-0.883 0-1.599 0.716-1.599 1.599s0.716 1.599 1.599 1.599c0.432 0 0.824-0.172 1.112-0.45l-0 0 1.853 0.93c0.215 0.107 0.476 0.057 0.636-0.122l3.939-4.432 3.872 2.902c0.208 0.155 0.498 0.139 0.686-0.039l3.365-3.188v8.131h-18.123v-12.261h18.123v2.661l-3.771 3.572-3.904-2.927c-0.088-0.067-0.2-0.107-0.32-0.107-0.158 0-0.3 0.069-0.398 0.178l-0 0.001-3.993 4.493-1.493-0.746c0.011-0.064 0.017-0.128 0.020-0.193 0-0.883-0.716-1.599-1.599-1.599v0zM8.529 15.498c0 0.294-0.239 0.533-0.533 0.533s-0.533-0.239-0.533-0.533v0c0-0.294 0.239-0.533 0.533-0.533s0.533 0.239 0.533 0.533v0zM11.727 24.026h5.33v0.533c0 0.294-0.238 0.533-0.533 0.533h-4.265c-0.294 0-0.533-0.239-0.533-0.533v0-0.533zM1.067 24.56c0-0.294 0.238-0.533 0.533-0.533h9.062v0.533c0 0.883 0.716 1.599 1.599 1.599v0h4.265c0.883 0 1.599-0.716 1.599-1.599v0-0.533h9.062c0.294 0 0.533 0.239 0.533 0.533v2.132c0 0.294-0.239 0.533-0.533 0.533h-25.586c-0 0-0 0-0 0-0.294 0-0.533-0.239-0.533-0.533 0 0 0 0 0 0v0-2.132z"></path>
<path fill="none" stroke="#000" stroke-linejoin="miter" stroke-linecap="butt" stroke-miterlimit="4" stroke-width="0.4571" d="M26.424 23.189v-13.62l0.071-0.068 3.143-2.978 0.143 0.070c0.178 0.089 0.387 0.142 0.609 0.142 0.762 0 1.379-0.617 1.379-1.379s-0.617-1.379-1.379-1.379c-0.293 0-0.565 0.092-0.789 0.248l0.004-0.003-3.182 18.967zM26.424 23.189h0.229M26.424 23.189h0.229M26.653 23.189h0.533c0.757 0 1.37 0.614 1.37 1.37v0 2.132c0 0.757-0.614 1.37-1.37 1.37h-25.586c-0 0-0 0-0 0-0.757 0-1.37-0.613-1.371-1.37v-2.132c0-0.757 0.614-1.37 1.371-1.37v0h0.762v-16.221c0-0.757 0.614-1.37 1.37-1.37v0h21.323c0.757 0 1.37 0.614 1.37 1.37v0 1.761l2.787-2.641M26.653 23.189l2.558-17.1M29.211 6.089l-0.070-0.149M29.211 6.089l-0.070-0.149M29.141 5.939c-0.081-0.171-0.129-0.371-0.129-0.583 0-0.468 0.233-0.882 0.59-1.132l0.004-0.003-0.465 1.718zM25.744 9.373l0.071-0.068v-2.337c0-0.421-0.341-0.762-0.762-0.762h-21.323c-0.421 0-0.762 0.341-0.762 0.762v16.22h22.846v-13.044l-1.523 1.443v9.773c0 0 0 0 0 0 0 0.168-0.136 0.304-0.304 0.304-0 0-0 0-0 0h-19.189c-0 0-0 0-0 0-0.168 0-0.304-0.136-0.304-0.304 0 0 0 0 0 0v0-13.327c0-0.168 0.137-0.304 0.305-0.304h19.189c0.168 0 0.305 0.137 0.305 0.304v2.718l1.452-1.38zM7.995 14.127h0.001c0 0 0 0 0 0 0.755 0 1.368 0.611 1.37 1.366v0c-0.003 0.059-0.009 0.114-0.018 0.168l0.001-0.008-0.029 0.167 0.152 0.075 1.649 0.825 4.109-4.624c0.056-0.063 0.137-0.102 0.228-0.102 0.069 0 0.133 0.023 0.184 0.061l-0.001-0.001 4.059 3.043 3.983-3.772v-2.987h-18.581v12.718h18.581v-8.891l-3.75 3.553c-0.055 0.052-0.128 0.083-0.209 0.083-0.069 0-0.133-0.023-0.184-0.061l0.001 0.001-4.040-3.028-0.139 0.157-3.939 4.431c-0.056 0.063-0.137 0.102-0.228 0.102-0.049 0-0.096-0.012-0.137-0.033l0.002 0.001-1.998-1.003-0.117 0.113c-0.246 0.238-0.582 0.385-0.953 0.385-0.757 0-1.37-0.614-1.37-1.37s0.614-1.37 1.37-1.37c0.001 0 0.003 0 0.004 0h-0zM11.727 23.798h-0.229v0.762c0 0.421 0.341 0.762 0.762 0.762h4.265c0.421 0 0.762-0.341 0.762-0.762v-0.762h-5.559zM10.889 24.026v-0.229h-9.29c-0.421 0-0.762 0.341-0.762 0.762v2.132c0 0.421 0.341 0.762 0.762 0.762h25.586c0.421 0 0.762-0.341 0.762-0.762v-2.132c0-0.421-0.341-0.762-0.762-0.762h-9.29v0.762c0 0.757-0.614 1.37-1.37 1.37v0h-4.265c-0.757 0-1.37-0.614-1.37-1.37v0-0.533zM31.145 5.37c0-0.421-0.341-0.762-0.762-0.762s-0.762 0.341-0.762 0.762v0c0 0.421 0.341 0.762 0.762 0.762s0.762-0.341 0.762-0.762v0zM7.995 16.259c0.421 0 0.762-0.341 0.762-0.762s-0.341-0.762-0.762-0.762v0c-0.421 0-0.762 0.341-0.762 0.762s0.341 0.762 0.762 0.762v0z"></path>
</svg>
